# AST/ASF file generated using VICON BodyLanguage
# -----------------------------------------------
:version 1.10
:name VICON
:units
  mass 1.0
  length 0.45
  angle deg
:documentation
   .ast/.asf automatically generated from VICON data using
   VICON BodyBuilder and BodyLanguage model FoxedUp or BRILLIANT.MOD
:root
   order TX TY TZ RX RY RZ
   axis XYZ
   position 0 0 0  
   orientation 0 0 0 
:bonedata
  begin
     id 1 
     name lhipjoint
     direction 0.650112 -0.723553 0.232005 
     length 2.45805 
     axis 0 0 0  XYZ
  end
  begin
     id 2 
     name lfemur
     direction 0.34202 -0.939693 0  
     length 7.00073  
     axis 0 0 20  XYZ
    dof rx ry rz
    limits (-160.0 20.0)
           (-70.0 70.0)
           (-60.0 70.0)
  end
  begin
     id 3 
     name ltibia
     direction 0.34202 -0.939693 0   
     length 7.8748   
     axis 0 0 20   XYZ
    dof rx
    limits (-10.0 170.0)
  end
  begin
     id 4 
     name lfoot
     direction 0.0542825 -0.14914 0.987325   
     length 1.75978   
     axis -90 7.62852e-016 20   XYZ
    dof rx rz
    limits (-45.0 90.0)
           (-70.0 20.0)
  end
  begin
     id 5 
     name ltoes
     direction 1.53509e-011 -4.21906e-011 1   
     length 0.893912   
     axis -90 7.62852e-016 20   XYZ
    dof rx
    limits (-90.0 20.0)
  end
  begin
     id 6 
     name rhipjoint
     direction -0.637897 -0.733345 0.235145   
     length 2.42522  
     axis 0 0 0  XYZ 
  end
  begin
     id 7 
     name rfemur
     direction -0.34202 -0.939693 0   
     length 7.02549   
     axis 0 0 -20   XYZ
    dof rx ry rz
    limits (-160.0 20.0)
           (-70.0 70.0)
           (-70.0 60.0)
  end
  begin
     id 8 
     name rtibia
     direction -0.34202 -0.939693 0   
     length 7.71512   
     axis 0 0 -20   XYZ
    dof rx
    limits (-10.0 170.0)
 end
 begin
     id 9 
     name rfoot
     direction -0.0822618 -0.226012 0.970645   
     length 1.90014  
     axis -90 -7.62852e-016 -20   XYZ
    dof rx rz
    limits (-45.0 90.0)
           (-20.0 70.0)
  end
  begin
     id 10 
     name rtoes
     direction -1.53542e-011 -4.21872e-011 1   
     length 0.957341   
     axis -90 -7.62852e-016 -20   XYZ
    dof rx
    limits (-90.0 20.0)
  end
  begin
     id 11 
     name lowerback
     direction -0.0022947 0.999774 -0.0211557   
     length 1.89909   
     axis 0 0 0   XYZ
    dof rx ry rz
    limits (-20.0 45.0)
           (-30.0 30.0)
           (-30.0 30.0)
  end
  begin
     id 12 
     name upperback
     direction 0.0107737 0.998635 0.0511027   
     length 1.8853   
     axis 0 0 0   XYZ
    dof rx ry rz
    limits (-20.0 45.0)
           (-30.0 30.0)
           (-30.0 30.0)
  end
  begin
     id 13 
     name thorax
     direction 0.011824 0.998136 0.0598754   
     length 1.88911   
     axis 0 0 0   XYZ
    dof rx ry rz
    limits (-20.0 45.0)
           (-30.0 30.0)
           (-30.0 30.0)
  end
  begin
     id 14 
     name lowerneck
     direction -0.0685355 0.990319 0.120714   
     length 1.91222   
     axis 0 0 0   XYZ
    dof rx ry rz
    limits (-20.0 45.0)
           (-30.0 30.0)
           (-30.0 30.0)
  end
  begin
     id 15 
     name upperneck
     direction 0.0886204 0.955665 -0.280805   
     length 1.92526   
     axis 0 0 0   XYZ
    dof rx ry rz
    limits (-20.0 45.0)
           (-30.0 30.0)
           (-30.0 30.0)
  end
  begin
     id 16
     name head
     direction 0.0233423 0.993502 -0.111393  
     length 1.96056  
     axis 0 0 0   XYZ
    dof rx ry rz
    limits (-20.0 45.0)
           (-30.0 30.0)
           (-30.0 30.0)
  end
  begin
     id 17 
     name lclavicle
     direction 0.941873 0.32922 0.0670041  
     length 3.31705  
     axis 0 0 0   XYZ
    dof ry rz
    limits (-20.0 10.0)
           (0.0 20.0)
  end
  begin
     id 18 
     name lhumerus
     direction 1 -4.4898e-011 3.38707e-028   
     length 5.29277   
     axis 180 -30 -90   XYZ
    dof rx ry rz
    limits (-60.0 90.0)
           (-90.0 90.0)
           (-90.0 90.0)
  end
  begin
     id 19
     name lradius
     direction 1 -4.48952e-011 1.63213e-028   
     length 2.85226   
     axis 180 -30 -90   XYZ
    dof rx
    limits (-10.0 170.0)
  end
  begin
     id 20
     name lwrist
     direction 1 -4.49001e-011 1.27856e-027   
     length 1.42613   
     axis -1.61767e-015 90 90   XYZ
    dof ry
    limits (-180.0 0.0)
 end
  begin
     id 21 
     name lhand
     direction 1 -4.48976e-011 2.55931e-027   
     length 0.602097   
     axis -1.63363e-015 90 90   XYZ
    dof rx rz
    limits (-90.0 90.0)
           (-45.0 45.0)
  end
  begin
     id 22 
     name lfingers
     direction 1 -4.48986e-011 5.11684e-027   
     length 0.485426   
     axis -3.26723e-015 90 90   XYZ
    dof rx
    limits (0.0 90.0)
  end
  begin
     id 23
     name lthumb
     direction 0.707107 -6.34915e-011 0.707107   
     length 0.696978   
     axis -90 45 -2.25915e-014   XYZ
    dof rx rz
    limits (-45.0 45.0)
           (-45.0 45.0)
  end
  begin
     id 24 
     name rclavicle
     direction -0.939974 0.327078 0.0973096   
     length 3.10337  
     axis 0 0 0   XYZ 
    dof ry rz
    limits (-10.0 20.0)
           (-20.0 0.0)
  end
  begin
     id 25 
     name rhumerus
     direction -1 -4.48975e-011 1.83745e-027  
     length 5.13304   
     axis 180 30 90   XYZ
    dof rx ry rz
    limits (-90.0 60.0)
           (-90.0 90.0)
           (-90.0 90.0)
  end
  begin
     id 26 
     name rradius
     direction -1 -4.48977e-011 7.1775e-029   
     length 2.74305   
     axis 180 30 90   XYZ
    dof rx
    limits (-10.0 170.0)
  end
  begin
     id 27 
     name rwrist
     direction -1 -4.48977e-011 1.27963e-027   
     length 1.37152   
     axis -1.61767e-015 -90 -90   XYZ
    dof ry
    limits (-180.0 0.0)
  end
  begin
     id 28
     name rhand
     direction -1 -4.4888e-011 2.56782e-027   
     length 0.767976   
     axis -1.63363e-015 -90 -90   XYZ
    dof rx rz
    limits (-90.0 90.0)
           (-45.0 45.0)
  end
  begin
     id 29
     name rfingers
     direction -1 -4.48947e-011 5.12384e-027   
     length 0.619162   
     axis -3.26723e-015 -90 -90   XYZ
    dof rx
    limits (0.0 90.0)
  end
  begin
     id 30
     name rthumb
     direction -0.707107 -6.34857e-011 0.707107   
     length 0.888997   
     axis -90 -45 2.25915e-014   XYZ
    dof rx rz
    limits (-45.0 45.0)
           (-45.0 45.0)
  end
:hierarchy
  begin
    root lhipjoint rhipjoint lowerback
    lhipjoint lfemur
    lfemur ltibia
    ltibia lfoot
    lfoot ltoes
    rhipjoint rfemur
    rfemur rtibia
    rtibia rfoot
    rfoot rtoes
    lowerback upperback
    upperback thorax
    thorax lowerneck lclavicle rclavicle
    lowerneck upperneck
    upperneck head
    lclavicle lhumerus
    lhumerus lradius
    lradius lwrist
    lwrist lhand lthumb
    lhand lfingers
    rclavicle rhumerus
    rhumerus rradius
    rradius rwrist
    rwrist rhand rthumb
    rhand rfingers
  end

#!OML:ASF F:\VICON\USERDATA\INSTALL\rory3\rory3.ASF
:FULLY-SPECIFIED
:DEGREES
202
root 0.225875 17.4328 0.203398 4.29832 1.18317 -1.70791
lowerback -3.03391 0.0344288 -0.299035
upperback -3.7416 0.0574364 0.429933
thorax -2.139 0.0424937 0.609147
lowerneck -16.3059 -11.31 -14.9142
upperneck 29.8539 -17.6293 15.3695
head 16.3487 -7.40633 5.50615
rclavicle 6.41081e-015 6.16232e-015
rhumerus -39.7765 1.46332 -89.0845
rradius 25.2698
rwrist 13.6246
rhand -0.828778 14.7611
rfingers 7.12502
rthumb 24.7963 -13.6514
lclavicle 6.41081e-015 6.16232e-015
lhumerus -34.7243 9.36918 84.2094
lradius 15.5384
lwrist -29.8502
lhand -4.52483 23.1721
lfingers 7.12502
lthumb 21.2499 52.0272
rfemur 0 0 0
rtibia 0
rfoot 0 0
rtoes 0
lfemur -3.65744 -19.7249 -17.5382
ltibia 15.4343
lfoot -16.0411 15.8589
ltoes -14.3702
203
root 0.226268 17.4329 0.202043 4.3054 1.16675 -1.71284
lowerback -3.05929 0.0219544 -0.313876
upperback -3.73578 0.0414956 0.462638
thorax -2.11865 0.0352677 0.650852
lowerneck -16.3288 -11.2964 -14.9194
upperneck 29.8469 -17.5903 15.3408
head 16.3381 -7.3927 5.50217
rclavicle 5.37961e-015 1.05356e-014
rhumerus -39.7524 1.57764 -89.105
rradius 25.2442
rwrist 13.6368
rhand -0.835063 14.7924
rfingers 7.12502
rthumb 24.7903 -13.6208
lclavicle 5.37961e-015 1.05356e-014
lhumerus -34.7349 9.37252 84.2893
lradius 15.5787
lwrist -29.7403
lhand -4.59059 23.1122
lfingers 7.12502
lthumb 21.1867 51.9744
rfemur 0 0 0
rtibia 0
rfoot 0 0
rtoes 0
lfemur -3.65382 -19.7225 -17.5402
ltibia 15.4272
lfoot -16.0141 15.849
ltoes -14.4282
204
root 0.227253 17.432 0.200928 4.31125 1.16819 -1.75657
lowerback -3.04068 0.0165738 -0.248034
upperback -3.77804 0.0336393 0.471435
thorax -2.1725 0.0300795 0.622912
lowerneck -16.287 -11.2837 -14.8774
upperneck 29.859 -17.5656 15.2719
head 16.3125 -7.38774 5.4721
rclavicle -1.85118e-015 -2.98177e-015
rhumerus -39.8202 1.51466 -89.093
rradius 25.2231
rwrist 13.7884
rhand -0.801844 14.855
rfingers 7.12502
rthumb 24.8221 -13.5539
lclavicle -1.85118e-015 -2.98177e-015
lhumerus -34.8196 9.33448 84.3104
lradius 15.6258
lwrist -29.6943
lhand -4.79209 22.9708
lfingers 7.12502
lthumb 20.9932 51.8546
rfemur 0 0 0
rtibia 0
rfoot 0 0
rtoes 0
lfemur -3.64805 -19.7295 -17.4946
ltibia 15.4085
lfoot -15.9796 15.795
ltoes -13.9895
205
root 0.22861 17.4318 0.198674 4.30923 1.18075 -1.76245
lowerback -3.02852 0.0181987 -0.19791
upperback -3.78972 0.0349849 0.459542
thorax -2.1913 0.0294096 0.582641
lowerneck -16.2532 -11.2953 -14.8561
upperneck 29.8369 -17.5718 15.224
head 16.2847 -7.39552 5.44502
rclavicle -1.19644e-014 -1.2921e-014
rhumerus -39.8566 1.50888 -89.1162
rradius 25.2316
rwrist 13.8057
rhand -0.752048 14.9067
rfingers 7.12502
rthumb 24.8698 -13.4956
lclavicle -1.19644e-014 -1.2921e-014
lhumerus -34.8517 9.56335 84.1794
lradius 15.6379
lwrist -30.0511
lhand -4.82015 22.7454
lfingers 7.12502
lthumb 20.9662 51.6322
rfemur 0 0 0
rtibia 0
rfoot 0 0
rtoes 0
lfemur -3.64919 -19.7049 -17.4883
ltibia 15.3956
lfoot -15.9084 15.8396
ltoes -14.1396
206
root 0.229227 17.4331 0.194872 4.31761 1.18474 -1.72002
lowerback -3.00687 0.0215792 -0.229456
upperback -3.79916 0.0400622 0.466395
thorax -2.21328 0.0329025 0.607397
lowerneck -16.2505 -11.2895 -14.9191
upperneck 29.8246 -17.5424 15.231
head 16.2803 -7.38988 5.4653
rclavicle -1.01877e-014 -1.41137e-014
rhumerus -39.8807 1.57915 -89.0974
rradius 25.2756
rwrist 13.7736
rhand -0.818118 14.956
rfingers 7.12502
rthumb 24.8065 -13.455
lclavicle -1.01877e-014 -1.41137e-014
lhumerus -34.8778 9.77839 84.1149
lradius 15.6741
lwrist -30.4787
lhand -4.455 22.8556
lfingers 7.12502
lthumb 21.317 51.7032
rfemur 0 0 0
rtibia 0
rfoot 0 0
rtoes 0
lfemur -3.67307 -19.6887 -17.5258
ltibia 15.3831
lfoot -15.9121 16.0276
ltoes -15.1362
